<?xml version="1.0" encoding="UTF-8"?>
<!DOCTYPE svg PUBLIC "-//W3C//DTD SVG 1.1//EN" "http://www.w3.org/Graphics/SVG/1.1/DTD/svg11.dtd">
<!-- Creator: CorelDRAW 2018 (64 Bit Versão de avaliação) -->
<svg xmlns="http://www.w3.org/2000/svg" xml:space="preserve" width="66.4168mm" height="52.832mm" version="1.1" style="shape-rendering:geometricPrecision; text-rendering:geometricPrecision; image-rendering:optimizeQuality; fill-rule:evenodd; clip-rule:evenodd"
viewBox="0 0 462.57 367.96"
 xmlns:xlink="http://www.w3.org/1999/xlink">
 <defs>
  <style type="text/css">
   <![CDATA[
    .fil2 {fill:black}
    .fil1 {fill:black;fill-rule:nonzero}
    .fil0 {fill:url(#id0);fill-rule:nonzero}
   ]]>
  </style>
  <linearGradient id="id0" gradientUnits="userSpaceOnUse" x1="-0" y1="183.98" x2="462.57" y2="183.98">
   <stop offset="0" style="stop-opacity:1; stop-color:#FCB72C"/>
   <stop offset="1" style="stop-opacity:1; stop-color:#FCB52C"/>
  </linearGradient>
 </defs>
 <g id="Camada_x0020_1">
  <metadata id="CorelCorpID_0Corel-Layer"/>
  <path class="fil0" d="M231.29 0c-14.79,-0.14 -22.61,3.9 -32.72,17.9 -65.12,103.58 -130.24,207.16 -195.36,310.74 -10.25,16.3 5.77,39.39 24.59,39.31 65.06,-0.3 130.12,-0.61 195.18,-0.91l7.48 -0 0.33 0 0.02 0 0.32 0 0.02 0 0.32 0 0.02 0 0.32 0 0.02 0 0.33 0 7.48 0c65.06,0.3 130.12,0.61 195.18,0.91 18.81,0.09 34.84,-23.01 24.59,-39.31 -65.12,-103.58 -130.24,-207.16 -195.36,-310.74 -10.12,-14 -17.94,-18.05 -32.72,-17.9z"/>
  <g id="_2613532083920">
   <polygon class="fil1" points="197.7,91.84 261.36,91.84 261.36,140.83 249,239.27 209.61,239.27 197.7,140.83 "/>
   <circle class="fil2" cx="229.53" cy="280.51" r="27.42"/>
  </g>
 </g>
</svg>
